# xmcd CD database file
#
# Track frame offsets:
#	150
#	12797
#	36297
#	51875
#	61850
#	78887
#	111215
#	135035
#	145282
#	166610
#	170310
#	186542
#
# Disc length: 2778 seconds
#
# Revision: 0
# Processed by: cddbd v1.5.1PL0 Copyright (c) Steve Scherf et al.
# Submitted via: CDex 1.51
#
DISCID=910ad80c
DTITLE=cholo azul - 2-dois
DYEAR=2003
DGENRE=Rock
TTITLE0=A GIRL IN THE CAGE
TTITLE1=WHERE IS GOD? WHAT IS LIVING?
TTITLE2=SOMEBODY ELSE GUY
TTITLE3=IN MY CHILDHOOD
TTITLE4=VOU DEITAR E ROLAR (QUAQUAQUAQUA)
TTITLE5=I DON'T MIND GETTING WET
TTITLE6=DEEP FOREST
TTITLE7=IF THEY GO AWAY
TTITLE8=YOU'RE ALWAYS THERE FOR ME
TTITLE9=YAFFA 1110
TTITLE10=LET ME THE ONE
TTITLE11=TO LOVE SOMEBODY
EXTD=YEAR: 2003
EXTT0=
EXTT1=
EXTT2=
EXTT3=
EXTT4=
EXTT5=
EXTT6=
EXTT7=
EXTT8=
EXTT9=
EXTT10=
EXTT11=
PLAYORDER=
